<svg xmlns="http://www.w3.org/2000/svg" viewBox="0 0 233.54 198.04"><defs><style>.cls-1{fill:#323046;}</style></defs><g id="Layer_2" data-name="Layer 2"><g id="Layer_1-2" data-name="Layer 1"><path class="cls-1" d="M72.36,141h88.83V112.6h12.18v28.5c13.25,0,25.83.23,38.4-.12,4.68-.13,8.44-5.06,8.66-10.13.18-4.32.09-8.64,0-13-.1-7.71-4.34-11.88-12.17-11.88q-61.59,0-123.19,0H78.93V93.58h5.5q61.59,0,123.19,0c15.48,0,24.9,9.36,24.95,24.71,0,4,0,8,0,12-.18,13.51-9.74,23.16-23.29,23.34-11.31.14-22.61.08-33.92.12a11.35,11.35,0,0,0-1.86.53v12.4c0,19.39-12,31.37-31.33,31.38H47.9c-1.5,0-3,.06-4.49-.08-3.52-.33-5.44-2.32-5.44-5.86s2-5.74,5.39-6c4.3-.32,8.65,0,13-.26,1.22-.08,3.33-1.46,3.35-2.29.24-9.75.16-19.5.16-29.66-2.3-.1-4.08-.25-5.86-.25-15,0-29.92,0-44.88,0-5.62,0-7.95-1.77-8.06-5.9-.13-4.35,2.39-6.46,8.07-6.48,15-.06,29.92,0,44.89,0h5.6V54.64a30.31,30.31,0,0,0-3.71-.45c-10.47,0-20.94-.08-31.42,0-7.21,0-11.62,4.2-11.85,11.27-.19,5.64-.19,11.3,0,16.94.23,6.85,4.51,11,11.47,11.15,7.64.15,15.29,0,22.94,0h5.66v11.83c-11.28,0-22.43.86-33.39-.24S1.19,95.3.38,84a140.75,140.75,0,0,1,0-19.91C1.3,50.52,10.91,42,24.92,41.77c9.64-.12,19.28,0,28.92,0h5.69V12.3c-4.85,0-9.6,0-14.35,0-4,0-6.93-1.42-7.19-5.79S40.68,0,44.54,0c34.4,0,68.81-.22,103.2.63,14.52.35,25.45,13.51,25.73,28.11.08,4.11,0,8.22,0,13h51.78c3.32,0,6.45.51,7.8,4.06,1.76,4.64-1.45,8.32-7.31,8.33-15.46,0-30.93,0-46.39,0h-5.81V86.74h-12V54.49H72.36Zm89.26,12.6H131.51c-18.26,0-36.52-.05-54.78.1-1.57,0-4.47,1.33-4.5,2.11-.31,9.88-.2,19.77-.2,29.34a8,8,0,0,0,1.67.66c23.9,0,47.81.22,71.71,0a15.89,15.89,0,0,0,15.18-12.9C161.58,166.83,161.31,160.51,161.62,153.62ZM72.29,12.3V41.43h88.79c0-4.92.52-9.74-.12-14.41-1.21-8.87-8.23-14.61-17.33-14.7-11.13-.1-22.27,0-33.41,0Z"/></g></g></svg>